<?xml version="1.0" encoding="UTF-8"?>
<svg version="1.1" viewBox="0 0 900 900" width="1280" height="1280" xmlns="http://www.w3.org/2000/svg">
<path transform="translate(464,107)" d="m0 0h43l19 4 15 6 14 8 14 11 13 12 3 2 172 1 5 5 1 3v7l-4 6-3 1-113 1h-39l-4-1 10 18 9 20 13 35 8 27 4 13v3h178l5 2 2 4v11l-2 4-4 2h-174l1 7-2 13-7 14-9 8-7 3-13 2h-9l-15-2-16-5-11-7-7-7-7-11-6-12-7-22-5-21-8-26-8-16-7-7-8-4-4-1h-22l-13 4-12 6-16 12-5 7-2 5v7l5 9 16 24 11 15 3 3 5 1 8 12 14 15 11 11 8 7 16 13 11 10 11 9 9 9 12 16 9 15v2h288l6 5 1 8-5 9-234 1h-45l10 31 9 31 12 38 4 8 254 2 9 1 4 5 2 3v6l-4 6-5 2h-71l-170-1-8-1 6 12 14 21 11 12 17 17 10 8 16 10 17 9 22 9 22 6 41 7 15 5 21 11 16 12 8 9 8 13 5 14 2 7v26l-4 13-6 10-7 6-12 6-9 2h-15l-15-3-14-3-27-7-30-10-36-15-15-6-19-10-26-14-18-11-33-22-14-11-12-11-14-14-11-14-13-18-9-14-14-26-13-25-11-25-5 1-14 5-17 8-12 8-10 9-12 16-5 12-1 4v16l5 10 5 5 11 7 21 10 30 8 16 3 20 7 16 8 17 10 10 8 9 8 9 14 4 11 1 4v17l-4 13-8 13-9 10-7 6-14 7h-8l-48-14-25-9-38-15-19-8-26-13-22-12-12-8-21-16-15-14-12-13-10-14-9-17-6-15-4-15-1-6v-29l5-20 10-23 9-15 9-11 11-12 1-2h2v-2l11-9 13-10 17-11 19-9 3-1-8-11-9-11-11-14-6-8-4-2-2 6-9 17-12 17-13 16-25 25-19 14-15 9-14 7-16 4-8 1h-36l-25-3-25-5-27-8-18-6-16-8-9-6-11-10-8-10-8-16-4-14-1-13 3-15 5-12 7-11 8-8 13-9 16-8 12-3 12 6 19 12 15 9 20 8 11 2h20l13-4 10-6 10-9 10-12 10-18 10-21 11-28 11-32 11-26 10-21 11-18 12-14 10-13 22-24 12-13 10-9 15-13 24-16 16-9 16-7 21-5zm20 15-22 4-24 8-19 9-17 10-16 12-13 11-8 7-10 9-7 8-12 14-10 15-17 33-8 20-8 25-11 32-14 35-8 16-8 14-9 11-9 10-13 10-11 5-17 5-13 2h-18l-23-4-23-7-17-8-24-15-5 1-15 8-10 8-7 10-2 6v17l5 13 8 11 14 14 14 10 13 7 23 6 26 5 15 2 17 1h14l15-2 20-5 20-8 15-9 10-8 10-9 8-7 13-16 12-18 8-15 9-20 4-5 4-2h7l6 4 10 14 22 28 14 18 7 10 2 5-1 8-7 4-19 7-21 11-14 9-12 9-19 19-9 13-8 18-5 18-1 18 2 14 5 16 7 16 8 12 11 12 9 10 15 14 11 8 27 18 16 9 16 8 27 13 72 28 17 6 7 2 4-10 5-19 1-5v-21l-3-10-5-8-8-7-16-8-35-10-30-6-15-5-15-8-13-10-9-10-5-9-3-8v-17l3-14 5-12 7-12 11-13 9-8 15-10 23-12 24-8h11l3 3 5 15 9 19 10 19 12 23 12 18 13 19 9 11 32 32 13 10 15 10 23 14 23 13 34 17 33 13 37 13 16 4 8 1 2-2 3-12 11-26 4-12v-15l-4-8-7-6-9-4-29-6-28-7-36-12-21-9-23-12-12-9-15-14-9-11-12-20-9-21-22-77-13-42-7-17-4-6-6-8-2-8-10-13-8-9-8-7-14-13-11-9-26-24-13-13-9-11-9-10-13-16-16-24-10-16-7-12-2-5 1-6 8-11 9-10 15-14 16-11 14-7 15-4h22l12 5 10 6 9 10 10 17 7 19 4 17 6 32 5 13 8 11 10 9 8 4h14l8-4 6-5 5-9 3-9v-13l-3-9-6-16-12-40-8-21-8-16-9-16-11-16-11-12-11-10-14-9-13-5-14-3z" fill="#050505"/>
<path transform="translate(168,68)" d="m0 0h23l19 3 16 5 16 8 11 8 8 7 11 15 8 15 5 15 1 12-2 16-9 25-8 18-8 12-9 10-6 7-8 7-8 6-13 6-15 4-11 2-17 1-21-1-17-3-11-5-9-6-9-11-11-19-7-17-4-15-1-6v-37l4-20 7-17 10-14 9-10 8-6 16-8 18-5zm9 20-18 2-17 4-12 5-8 6-7 10-5 10-6 21-2 17 2 19 6 25 6 15 6 10 8 8 8 4 7 2 23 2h13l15-1 18-7 14-9 9-8 10-14 9-19 8-25v-16l-6-17-6-11-9-11-11-9-16-8-16-4-10-1z" fill="#040404"/>
<path transform="translate(714,670)" d="m0 0 24 10 19 6 14 3 30 5v2h-12l-8-2v-1l-19-2-20-6-7-2-6-2v-2h-6l-1-3-6-2-2-1z" fill="#222"/>
<path transform="translate(598,703)" d="m0 0 8 6 18 13 20 12 13 8 7 4-2 2-8-4-18-11v-2l-7-2v-2l-5-2-7-4v-2l-6-2-2-1v-2h-3l-6-7-2-1z" fill="#212121"/>
<path transform="translate(499,351)" d="m0 0 7 6 14 11 12 11 5 4v2l-8-4v-2l-4-1-5-5-4-3-4-1v-2l-4-1-7-8-3-6z" fill="#1F1F1F"/>
<path transform="translate(455,683)" d="m0 0 9 2 16 4 16 3 17 6-2 2-6-1-7-3-12-2-1-3h-3v2l-16-4-7-2-4-2z" fill="#252525"/>
<path transform="translate(427,765)" d="m0 0 6 2 16 7 23 9v2l-10-2-10-3-26-13z" fill="#1F1F1F"/>
<path transform="translate(431,272)" d="m0 0 4 5 10 15 11 15 3 3h4v2l-4 2-6-4-1-4-7-10-4-2v-3l-4-4-2-4-2-1-1-4-3-3z" fill="#1F1F1F"/>
<path transform="translate(115,413)" d="m0 0 5 1 14 7 11 4 6 2v2l-9-1-6-2-5-2v-2l-4 1-2-3-8-4v-2z" fill="#202020"/>
<path transform="translate(648,311)" d="m0 0h78v1h-77l1 7-2 4-1-7z" fill="#262626"/>
<path transform="translate(368,733)" d="m0 0 9 5 16 9 8 4-1 2-4-1-10-5-9-5-8-4z" fill="#1B1B1B"/>
<path transform="translate(482,787)" d="m0 0 29 11 4 1-1 3-9-3-10-4-15-5 1-2z" fill="#1B1B1B"/>
<path transform="translate(598,703)" d="m0 0 8 6 18 13 4 2v2l-4-1-7-4v-2l-6-2-2-1v-2h-3l-6-7-2-1z" fill="#181818"/>
<path transform="translate(351,419)" d="m0 0 4 4 9 12 10 13-2 1-8-10-3-3v-2h-3l-1-5-3-1-2-4-3-3z" fill="#1C1C1C"/>
<path transform="translate(455,683)" d="m0 0 9 2 21 5-3 1v2l-16-4-7-2-4-2z" fill="#1D1D1D"/>
<path transform="translate(770,690)" d="m0 0h8l23 4v2h-12l-8-2v-1l-11-1z" fill="#1D1D1D"/>
<path transform="translate(523,605)" d="m0 0h2l13 24-1 2-3-3-3-5-2-4v-3l-3-1-3-7z" fill="#1C1C1C"/>
<path transform="translate(538,632)" d="m0 0h2l14 21-3 1-2-4-3-3-5-9-3-3z" fill="#1B1B1B"/>
<path transform="translate(152,427)" d="m0 0 24 1-2 2-4 1h-7l-11-2z" fill="#252525"/>
<path transform="translate(502,107)" d="m0 0 10 1 17 4-1 2-13-3-10-1-3-1z" fill="#262626"/>
<path transform="translate(821,701)" d="m0 0 6 2 15 8-1 2-4-1v-2l-7-2-9-4z" fill="#191919"/>
<path transform="translate(471,323)" d="m0 0 5 4 7 8 3 4-6-1-3-5-4-5-2-1z" fill="#272727"/>
<path transform="translate(808,784)" d="m0 0 3 1-2 9-3 7-3-1 2-5 2-8z" fill="#2C2C2C"/>
<path transform="translate(654,623)" d="m0 0 7 6 12 12h-3l-4-3v-2l-4-2-7-8z" fill="#1D1D1D"/>
<path transform="translate(284,558)" d="m0 0 1 4-5 8-3 8-3 5-1-3 8-16z" fill="#272727"/>
<path transform="translate(804,695)" d="m0 0 12 3 2 1v3l-9-2-4-1v-2l-2-1z" fill="#181818"/>
<path transform="translate(629,583)" d="m0 0h5l-4 1 6 12 4 6-1 2-6-7-4-9z" fill="#222"/>
<path transform="translate(352,722)" d="m0 0 7 4 7 5v2l-4-1-11-8z" fill="#1A1A1A"/>
<path transform="translate(437,676)" d="m0 0 6 2 11 4v2h-8v-2l-6-2-3-2z" fill="#1B1B1B"/>
<path transform="translate(588,356)" d="m0 0h17l7 2v1h-9l-15-2z" fill="#5A5A5A"/>
<path transform="translate(598,703)" d="m0 0 8 6 5 5-2 1-3-1-6-7-2-1z" fill="#1C1C1C"/>
<path transform="translate(450,302)" d="m0 0 3 1 6 7h4v2l-4 2-6-4-1-4z" fill="#393939"/>
<path transform="translate(482,787)" d="m0 0 14 5-1 2-6-1-9-3 1-2z" fill="#282828"/>
<path transform="translate(562,131)" d="m0 0 8 6 9 8-2 2-3-3v-2l-4-2-6-5-3-3z" fill="#202020"/>
<path transform="translate(718,773)" d="m0 0 16 6-1 3-15-6z" fill="#202020"/>
<path transform="translate(529,706)" d="m0 0 14 7 3 2v2l-5-2-12-7z" fill="#1B1B1B"/>
<path transform="translate(388,746)" d="m0 0 5 1 8 4-1 2-4-1-8-4z" fill="#171717"/>
<path transform="translate(580,762)" d="m0 0h2v17l-2-2-1-13z" fill="#373737"/>
<path transform="translate(210,438)" d="m0 0h5l-2 2-12 4-3-1 8-4z" fill="#1D1D1D"/>
<path transform="translate(463,311)" d="m0 0 4 5 3 4-1 2-8-8v-2z" fill="#1D1D1D"/>
<path transform="translate(339,713)" d="m0 0 5 2 6 5-2 2h-2l-7-8z" fill="#1C1C1C"/>
<path transform="translate(502,695)" d="m0 0 6 1 5 2-2 2-6-1-3-2z" fill="#161616"/>
<path transform="translate(310,684)" d="m0 0 4 2 7 8-1 2-2-4-4-2z" fill="#1D1D1D"/>
</svg>
