<?xml version="1.0" encoding="UTF-8"?>
<svg version="1.1" viewBox="0 0 900 900" width="1280" height="1280" xmlns="http://www.w3.org/2000/svg">
<path transform="translate(22,70)" d="m0 0 15 2 6 2 135 1h686l10 2 8 7 2 4 1 9-1 715-3 5-7 6-4 1h-842l-8-6-4-4-1-4-1-347v-207l1-163-7-2v-8l5-9 5-3zm35 39-1 5v48l61 1 2-1 1-51-1-2zm103 0v53h63v-53zm104 0v53h63v-52l-1-1zm104 0v53l59 1 1-1v-53zm104 0-1 1v52l60 1 1-1v-52l-1-1zm101 0v53l61 1 2-1v-52l-1-1zm104 0v53l61 1 2-1v-52l-1-1zm103 0v53h63v-53zm-723 87-1 2v344l11 8 16 13 12 9 16 4 70 14 64 14 6-1 23-7 15-4h10l6 3 3 1 2 4 3 2 5-4 2-1h13l23 11 17 9h65l12-1v-1l-15-4-9-6-8-9-4-9-1-4v-15l4-11 6-9 9-7 10-4h18l11 4 8 6 6 7 5 12 1 4v10l-5 14-7 9-7 6-16 6v1l25 1h50l20-10 17-9 9-2 9 2 5 5 4 7 7-6 6-3h11l38 11h8l67-14v-1l-15-3-11-5-9-8-6-12-2-6v-14l4-11 6-8 8-7 12-5 10-1 11 2 10 5 8 7 6 10 3 10v12l-4 11-6 9-8 7-9 4v1l11-1 59-12 9-6 17-14 7-6 1-3v-357zm-1 397v110l4 1h15l16-1 8-42 9-41v-4l-16-4-13-3-8-5-10-9h-2v-2zm678 3m-280 19m387-6v2l-4 2-9 5-27 6-1 1 1 10 13 61 1 5h-114l-3-13-8-40-10 1-22 4-43-12-13-5-5-5-2-7h-2l-3 6-44 24-5 2-19 1h-13v46l1 1h327l6-1 1-94zm-533 16v2l-5 2-49 14h-11l-23-4-3 6-9 44-3 11v3l8 1h180l3-1v-46h-28l-9-3-29-15-14-8-5-4-1-2zm-251 112-1 2v51l1 1h62v-54zm104 0-1 1v52l2 1h60l1-1v-52l-1-1zm104 0-1 1v52l3 1h58l2-1v-52l-1-1zm103 0v53l1 1h58l1-1v-52l-1-1zm104 0-1 1v52l2 1h58l1-1v-52l-1-1zm102 0-1 1v52l5 1h57l1-1v-52l-1-1zm103 0-1 1v52l1 1h62v-54zm104 0-1 1v52l2 1h60l1-1v-53z" fill="#2C3D65"/>
<path transform="translate(392,238)" d="m0 0h7l16 8 25 15 49 29 25 15 26 15 23 14 5 5 4 6 1 10-3 7-5 6-25 15-19 11-28 17-28 16-15 9-32 19-14 8-3 1h-12l-7-3-5-5-3-8v-194l6-9 6-5z" fill="#039F94"/>
<path transform="translate(727,516)" d="m0 0 13 2 10 5 9 8 6 10 3 10v12l-4 11-6 9-9 8-6 3 12-2 55-11 9-6 17-14 6-5h2l1 2v36l-1 15h-3v2l-11 7-14 4-15 3 1 10 13 61 1 5-1 1h-114l-2-3-9-46v-5l-30 6-17-4-31-9-10-4-6-6-1-7-2-1 1-15h3l7-6 4-2h11l38 11h8l63-13-16-5-6-3-10-9-6-12-2-6v-14l4-11 6-8 9-8 12-5z" fill="#F59D5E"/>
<path transform="translate(442,536)" d="m0 0h18l11 4 8 6 7 8 5 12 1 4v10l-5 14-7 9-8 7-13 5 22 1h50l20-10 17-9 9-2 9 2 5 4 3 6v16l-3 7-10 6-28 15-12 6-19 1-13-1v46l-82 1h-26l-5-1v-46l-10 1h-18l-9-3-29-15-14-8-6-5 3-10v-13-3l5-4 2-1h13l23 11 17 9h65l7-1-10-3-9-6-7-7-6-12-1-4v-15l4-11 6-9 7-6 9-5z" fill="#BC4D97"/>
<path transform="translate(56,542)" d="m0 0 10 6 17 14 12 9 16 4 70 14 64 14 6-1 23-7 15-4h10l6 3 5 5 4 5v13l-3 8h-3v2l-8 4-46 13h-11l-23-4-3 10-8 39-4 14h-112l-2-1 3-21 12-57 2-8-26-5-10-5-11-10-2-1v-2h-3z" fill="#79B556"/>
<path transform="translate(442,536)" d="m0 0h18l11 4 8 6 7 8 5 12 1 4v10l-5 14-7 9-8 7-13 5 14 1v1h-35v-1l7-1-10-3-9-6-7-7-6-12-1-4v-15l4-11 6-9 7-6 9-5z" fill="#BD4F97"/>
<path transform="translate(177,506)" d="m0 0 15 2 10 5 9 9 6 12 2 6v13l-4 12-7 9-8 7-10 4-4 1h-11l-11-2-10-6-8-9-6-12-1-5v-12l4-13 7-9 9-7 11-4z" fill="#79B557"/>
<path transform="translate(22,70)" d="m0 0 15 2 6 2v1l-15 2-8 5-3 3-2 7h-6l-1-1v-8l5-9 5-3z" fill="#FEFEFE"/>
<path transform="translate(738,594)" d="m0 0 4 2-7 1-3 1-7-1v-1z" fill="#FEFEFE"/>
</svg>
