<?xml version="1.0" encoding="UTF-8"?>
<svg version="1.1" viewBox="0 0 900 900" width="1280" height="1280" xmlns="http://www.w3.org/2000/svg">
<path transform="translate(229,111)" d="m0 0 3 1 2 8 25 151 6 34v6l-9 3-3-2-6-30-4-10-5-6-10-5h-20l-28 5-11 4-7 6-5 10-1 5v9l14 79 8 43 5 10 9 8 5 2h19l28-5 13-5 6-5 5-9 1-3v-14l-5-26 1-4h5l3 5 11 28 26 65 5 16 1 5v15l-5 25-31 136-19 83-16 70-8 33-5 12-7 10-6 7-12 9-13 6-14 4h-18l-21-7-12-7-11-10-9-14-5-11-2-9v-21l7-33 18-79 16-70 19-83 10-45 1-9-70-175-20-49-12-30-5-16-4-20-3-20v-27l3-10 7-10 8-6 13-6 15-4 20-3 44-4 32-5 24-5z" fill="#020202"/>
<path transform="translate(710,8)" d="m0 0h11l18 2 19 5 14 6 13 8 11 8 11 10 11 14 8 13 6 13 5 16 3 15v30l-5 23-6 15-8 15-10 13-9 10-11 9-14 9-14 7-20 6-21 3h-14l-21-3-16-5-14-6-14-9-10-8-9-8-11-14-9-15-6-14-4-13-3-15v-30l5-23 6-15 9-16 9-12 8-9h2v-2l14-11 15-9 17-7 15-4z" fill="#010101"/>
<path transform="translate(277,32)" d="m0 0h13l39 9 131 32 13 5 9 7 7 8 5 12 1 3v17l-4 12-7 10-8 7-11 5-8 2h-12l-21-5-74-18-10-3 6 39 24 143 1 16-2 11-5 10-8 9-10 6-8 3-5 1h-13l-13-4-9-6-7-7-7-14-8-45-30-181-5-30v-20l4-11 7-9 8-7 10-5z" fill="#020202"/>
<path transform="translate(312)" d="m0 0h17l19 5 119 29 36 9 16 7 10 6 11 10 9 14 4 10 3 12 1 8v22l-3 18-3 10-8 18-10 16-12 14-8 8-14 11-16 10-5 3-3-5-7-10-9-5-6-2h-8l-34 6-11 4-8 6-5 8-2 11 3 20 2 10v6l-6 2h-5l-2-7-20-121v-10l18 4 53 13 14 3 11 1 11-2 12-4 10-6 8-7 9-14 3-9 1-6v-20l-4-13-6-10-9-10-13-8-13-4-64-16-82-20-22-5-8-1v-3l8-7 10-6z" fill="#050505"/>
<path transform="translate(443,231)" d="m0 0h10l7 4 4 7 5 24 9 51 8 43v12l-4 6-4 3-17 4-24 4h-6l-6-4-5-6-8-44v-3l-24 5h-4l-2-24-1-9 21-4 3-1-7-42v-8l3-6 5-4 9-3z" fill="#040404"/>
<path transform="translate(211,273)" d="m0 0h14l5 3 4 6 4 18 5 28 10-1 10-2 5 1 5 22 3 6-1 3-21 4h-5l8 45-1 9-6 7-10 3-28 5h-11l-6-3-4-6-3-12-13-74-6-32v-14l4-6 6-4 20-4z" fill="#040404"/>
<path transform="translate(518,258)" d="m0 0 10 2 5 5 3 6 8 44 13 71v15l-5 6-8 3-27 5-7 1h-9l-8-7-3-10-2-8 8-11 3-9-1-14-13-72-3-16 1-5 27-5z" fill="#040404"/>
<path transform="translate(284,369)" d="m0 0h3l5 5 9 6 11 4 5 1 14 1v1l-11 1 8 43v9l-4 6-4 5-4-1-12-29-17-43z" fill="#121212"/>
<path transform="translate(395,348)" d="m0 0h6l3 13 2 11-7 3-39 7-9 2h-6l3-2 13-7 11-11 8-13z" fill="#121212"/>
<path transform="translate(639,34)" d="m0 0m-1 1m-2 1 2 1-19 19v-3l9-10h2v-2z" fill="#818181"/>
</svg>
