<?xml version="1.0" encoding="UTF-8"?>
<svg version="1.1" viewBox="0 0 872 872" width="1280" height="1280" xmlns="http://www.w3.org/2000/svg">
<path transform="translate(416)" d="m0 0h41v2l3-1h13l10 2 34 5 26 6 22 6 36 13 24 11 20 10 28 17 17 12 12 9 14 11 13 12 10 9 14 14 7 8 13 15 11 14 11 15 11 17 13 22 9 17 11 24 13 36 8 30 4 18 5 31 3 28v47l-6 44-7 36-9 32-11 30-14 30-11 21-12 19-8 12-11 15-9 12-12 14-12 12-7 8-15 14-10 9-10 8-16 12-24 16-22 13-15 8-28 13-30 11-27 8-30 7-43 7-15 1h-43l-15-1-54-9-36-9-34-12-23-10-26-13-28-17-17-12-12-9-16-13-10-9-13-12-12-12-7-8-7-7-11-14-16-21-15-24-9-15-8-16-11-23-11-29-8-26-8-36-4-30v-95l3-27 5-25 8-30 9-26 9-22 15-31 15-25 11-17 10-13 12-16 12-13 1-2h2l2-4 24-24 8-7 13-11 19-14 11-8 21-13 19-11 33-16 35-13 24-7 30-7 25-4 21-3zm-203 172-8 2-7 8-2 7v458l3 7 7 6 7 2 74 1h234l97-1 6-3 7-8 1-4v-152l-5 2-35 35-1 88-9 1h-334l-11-1-1-264v-144h356v69l5-1 14-14 5-6 6-5v-2l4-2 6-7v-55l-2-7-5-6-5-3-5-1zm477 54-9 4-17 16-3 4 14 15 66 66 8 7 3-1 7-8 12-14 3-6 1-11-4-10-11-12-25-25-9-11-10-9-10-5zm-41 33-11 9-11 11 2 5 47 47 14 16 8 7 19 19 7-6 16-16-6-7-30-30-9-11-43-43zm-363 14-8 4-6 9-1 9 3 8 5 5 6 4 4 1 240-1 9-7 3-7v-11l-3-6-8-7-2-1zm327 20-8 8-9 11-99 99-2 1v2l-4 2-20 20-4 8-10 35-15 54-3 12v10l3 5 6 3h8l23-6 34-10 44-12 9-6 23-23 5-6 6-5 7-8 23-23 7-6 7-8 9-9 7-8 14-14 6-7 26-26v-3l-6-5-6-7h-2l-2-4h-2l-2-4-69-69zm-325 60-7 3-6 5-4 9v7l5 9 8 7 3 1h36l157-1 29-29 7-5 2-4-1-1zm-1 83-7 4-6 7-3 8 2 9 6 8 4 3h153l3-8 8-28v-3zm7 85-10 2-8 6-4 7-1 7 4 10 7 7 6 2h23l98-1 3-5 8-28v-6z" fill="#2BA616"/>
<path transform="translate(490,464)" d="m0 0 5 1 2 4 26-1 10 1 1 3-2 28 2 5 3 5-8 3-28 8-4-1-7-6-9-7-2-2 2-10 7-27z" fill="#2CA617"/>
</svg>
