<?xml version="1.0" encoding="UTF-8"?>
<svg version="1.1" viewBox="0 0 900 896" width="1280" height="1280" xmlns="http://www.w3.org/2000/svg">
<path transform="translate(429)" d="m0 0h40l45 6 29 5 32 8 36 12 30 13 28 15 19 12 16 11 15 11 11 9 14 12 8 8 8 7 8 8 7 8 9 9 9 11 11 13 12 16 16 24 9 16 13 25 10 24 13 38 6 28 5 24 4 25 2 27v40l-3 36-5 30-8 37-8 25-8 23-11 26-13 24-15 24-13 18-11 14-11 12-8 10-16 17-9 9-8 7-10 9-10 8-15 11-20 13-19 12-26 14-16 8-28 11-34 11-37 8-23 4-19 2-16 1h-61l-33-3-25-5-36-9-30-11-26-12-20-10-24-14-25-16-17-12-14-11-14-12-10-9-13-13-7-8-12-14-12-15-14-19-11-17-12-21-14-27-9-21-11-33-9-38-5-28-3-29-1-22v-27l1-29 2-24 6-30 8-31 12-36 10-24 16-30 13-21 14-20 14-18 9-11 11-12 9-10 18-18 11-9 12-10 20-15 18-12 13-8 23-13 17-9 29-12 20-7 23-7 38-9 19-3 27-3zm-30 149-5 3-4 13 2 9 6 8 9 8 24 16 26 17 12 6 10 7 10 10 6 10 1 3v12l-4 20-3 16-2 12-8 3-24 6-25 6-18 3-15 4-14 7-13 10-15 12-20 15-14 13-5 10-2 10v10l3 12 6 10 21 21 8 7 14 12 13 11 8 6 10 7 3 2-1 5-13 32-28 84-8 29-7 28-3 15v12l3 10 4 6 6 5 8 1 9-3 10-8 7-10 13-24 12-24 15-34 7-15 7-16 9-23 5-10 7-6 5 1 5 4 10 16 8 17 10 27 10 28 5 16 11 27 8 15 8 12 6 7 10 5 5 1 9-1 6-4 4-5 2-7v-32l-4-29-6-28-9-29-9-27-16-43-8-25-4-19-3-24v-24l6-40 7-35 3-20 2-29v-27l-1-39-2-17-4-13-6-9-7-7-12-9-20-12-24-14-15-9-23-13-14-6-4-1zm27 74-11 4-11 7-11 10-6 12-4 16v12l4 13 6 12 9 10 8 6 11 3 16 1 13-2 13-4 10-6 10-14 5-15 1-7v-16l-2-9-4-8-9-10-14-10-9-4-6-1z" fill="#F56059"/>
<path transform="translate(393,410)" d="m0 0 10 2 5 5 6 12 5 25-1 10-3 9-5-2-15-14-13-13-4-8-1-10 5-10 7-5z" fill="#F56059"/>
</svg>
