<?xml version="1.0" encoding="UTF-8"?>
<svg version="1.1" viewBox="0 0 1024 1024" width="1280" height="1280" xmlns="http://www.w3.org/2000/svg">
<path transform="translate(487,21)" d="m0 0h49l36 3 33 5 31 7 27 8 26 9 26 11 25 12 23 13 19 12 16 11 12 9 16 13 11 9 7 7 8 7 21 21 7 8 12 14 11 14 14 19 11 17 14 24 15 29 11 25 11 30 10 35 7 33 4 28 3 37v40l-2 30-4 30-6 31-9 34-10 29-9 22-12 26-13 24-14 23-14 20-10 13-8 10-11 13-22 24-15 14-11 10-11 9-10 8-13 10-24 16-17 10-16 9-15 8-32 14-27 10-34 10-32 7-35 5-39 3h-35l-29-2-31-4-31-6-27-7-36-12-29-12-29-14-23-13-27-18-19-14-16-13-10-9-8-7-7-7-8-7-24-26-9-11-11-14-13-18-11-17-8-13-12-22-14-29-11-28-10-30-7-27-7-36-4-33-1-16v-52l3-35 6-37 7-29 7-24 9-26 12-28 9-19 12-22 13-21 11-16 8-11 11-14 9-11 10-11 7-8 26-26 8-7 13-11 17-13 18-13 17-11 26-15 24-12 28-12 34-12 34-9 31-6 29-4zm7 105-33 3-30 5-28 7-32 11-25 11-25 13-24 15-14 10-18 14-12 11-8 7-17 17-7 8-14 17-13 18-11 17-11 19-8 15-12 28-7 19-8 28-5 24-5 36-1 16v32l2 26 5 33 6 27 7 22 10 27 13 28 12 21 11 17 13 18 13 16 22 24 16 15 14 12 12 9 19 13 16 10 22 12 26 12 30 11 29 8 33 6 28 3h55l34-4 33-7 24-7 17-6 22-9 21-10 21-12 24-16 12-9 10-8 14-12 30-30 9-11 11-14 12-17 15-25 14-27 11-27 9-27 6-25 5-27 3-29 1-18v-17l-2-28-3-25-7-34-8-27-11-29-14-29-10-18-11-17-13-18-13-16-9-10-7-8-16-16-8-7-17-14-18-13-20-13-18-10-17-9-19-8-24-9-24-7-33-7-31-4-17-1z" fill="#334253"/>
<path transform="translate(501,453)" d="m0 0h18l12 3 13 7 11 10 7 10 6 16 1 6v13l-4 18-20 76-14 52-1 6v15l3 6 8 4h13l16-4 20-9 14-9 6-4 1 1 3 32v6l-9 9-11 9-16 13-18 13-18 10-17 8-22 8-27 7-10 2-19 1-15-2-10-4-9-7-6-8-5-11-3-13v-16l4-26 15-62 9-36 14-57 13-52 5-12 8-11 9-8 16-8z" fill="#3379BA"/>
<path transform="translate(545,237)" d="m0 0h20l13 3 15 8 10 9 7 8 8 14 5 15 1 5v23l-4 15-6 11-11 12-8 7-14 8-12 5-14 4-12 2h-15l-17-4-15-8-8-7-9-12-5-11-4-15v-15l4-18 8-16 6-9 9-10 9-8 13-8 15-6z" fill="#3479BA"/>
</svg>
