<?xml version="1.0" encoding="UTF-8"?>
<svg version="1.1" viewBox="0 0 1024 1024" width="1280" height="1280" xmlns="http://www.w3.org/2000/svg">
<path transform="translate(768,31)" d="m0 0h53l46 2 12 2 6 4 5 6 2 10-4 8-9 8-3 1h-18l-35-2h-71l-59 4-42 5-41 7-35 8-27 8-23 9-9 1-37 2-35 5-27 7-20 8-16 9-13 10-9 9-7 11-6 13-3 9-2 15v15l2 19 10 42 5 32 3 36v13l-3 38-1 31 2 26 5 28 7 25 13 40 8 33 6 35 3 26 1 18v42l-2 28-4 20-6 16-10 18-11 13-8 8-11 8-16 9-16 7-42 15-45 16-15 5-23 2-16 4-6 3h-2v2h-2l2 6 3 2 10 1 20-2h13l19 2 25 5 39 3h16l32-2 17 1 15 5 13 7 15 10 21 9 24 7 14 2h18l9-3 3-3v-15l-3-31-4-30-5-34-3-43v-91l3-48 9-68 6-45 3-30 1-19v-28l-1-19-5-34-7-28-10-25-8-15h-3l-9 12-8 5h-12l-6-3-5-6-2-5v-9l5-10 9-10 10-7 12-6 14-4 26-3h19l25 3 41 8 28 10 26 8 44 11 26 5 35 5 34 3h30l32-4 26-6h11l8 4 6 7 1 3v9l-5 10-5 4-10 4-23 5-21 3-11 1h-57l-36-4-30-5-33-7-41-11-40-13-16-5-27-5-27-3 11 26 7 21 6 25 4 28 1 11v67l-4 40-12 85-3 29-2 32-1 35v28l1 35 2 32 4 33 7 46 2 18v31l-4 12-7 9-9 8-11 5-17 4h-22l-19-3-18-5-28-11-20-11-11-7-10-4-6-1-18 1-23 1h-13l-32-2-27-4-13-3-10-1h-12l-17 2h-14l-14-3-9-4-6-4-7-6-6-9-2-7-1-12 2-12 6-12 3-4h2l2-4 14-9 12-5 12-3 20-3 17-1 36-12 55-20 19-9 11-9 10-13 7-16 4-17 4-39v-45l-4-37-7-36-8-30-15-46-7-30-5-35v-34l2-21 1-17v-22l-2-25-4-26-6-27-6-26-2-18v-21l2-16 5-17 5-12 8-15 9-11 9-10 13-11 10-7 16-9 20-9 26-8 21-5 27-4 23-2 23-1 33-11 32-8 24-5 30-5 51-6 50-3z"/>
<path transform="translate(738,115)" d="m0 0h40l6 4 6 9 1 3v10l-5 8-4 4-8 2-67 4-44 5-36 6-27 6-27 8-15 5-8 1-10-4-5-6-2-5v-9l3-7 5-5 12-6 36-12 35-8 36-6 37-4z"/>
<path transform="translate(602,225)" d="m0 0 10 1 34 11 32 9 30 7 26 5 42 6 8 3 7 8 2 4v8l-3 6-5 6-6 3h-23l-30-4-41-8-38-10-29-9-21-8-5-3-5-8-1-3v-9l3-6 8-7z"/>
<path transform="translate(447,165)" d="m0 0h11l7 4 5 7 1 3v11l-4 6-6 5-28 10-9 5-5 5-1 7 2 15 6 20 3 12v12l-5 8-4 4-6 2h-8l-8-3-6-7-2-5-5-23-4-17-1-9v-15l3-14 7-12 10-10 11-7 14-7z"/>
<path transform="translate(435,783)" d="m0 0h7l8 4 4 5 3 9 3 21v19l-3 17-7 14-7 8-10 5-6 2-12 1-17-3-12-5-5-6-2-5v-11l4-6 6-5 5-2 10 1 10 4 6 1 1-5v-28l-3-15 2-9 6-7z"/>
</svg>
