<?xml version="1.0" encoding="UTF-8"?>
<svg version="1.1" viewBox="0 0 900 900" width="1280" height="1280" xmlns="http://www.w3.org/2000/svg">
<path transform="translate(160,85)" d="m0 0h183l17 2 15 6 13 8 10 9 8 9 8 14 5 13 2 10 1 27v149l-1 18-3 13-7 16-10 14-9 9-10 7-14 7-13 4-10 1h-184l-14-2-19-8-10-6-13-12-6-8-7-12-5-14-2-11v-192l4-15 5-12 8-12 11-12 12-9 15-7 11-3zm4 55-9 3-8 6-4 6-2 6-1 8v171l3 12 6 7 9 5 7 2h177l9-3 10-9 4-8 1-9v-173l-4-11-6-7-10-5-5-1z" fill="#060606"/>
<path transform="translate(555,85)" d="m0 0h180l18 2 13 5 11 6 10 8 10 10 9 14 6 14 2 8v202l-4 13-8 16-6 8-8 9-11 8-14 7-11 4-15 2h-186l-12-2-19-8-13-10-10-10-9-13-6-15-3-11-1-9v-183l4-18 8-17 9-12 11-11 13-8 11-5 11-3zm2 55-10 4-6 5-6 10-1 3v181l3 8 8 9 8 5 4 1h180l8-3 9-8 4-8 2-14v-165l-2-10-5-8-7-6-7-3-4-1z" fill="#070707"/>
<path transform="translate(156,479)" d="m0 0h194l16 4 12 5 14 10 11 11 7 10 6 12 4 12 1 6v194l-4 16-8 17-11 14-10 9-14 8-14 5-12 2h-195l-17-5-13-7-10-8-10-10-9-14-6-14-2-8-1-9v-185l2-13 5-14 10-16 9-10 11-9 16-8 12-4zm14 54-10 1-10 6-6 7-3 7-1 5v175l2 9 4 6 8 7 7 3 8 1h168l11-2 8-5 7-8 3-10v-180l-4-8-6-7-10-6-80-1z" fill="#060606"/>
<path transform="translate(627,479)" d="m0 0h38l22 4 22 7 23 11 15 10 11 9 13 12 12 15 10 16 8 15 7 19 5 21 1 6v45l-4 20-7 21-10 21-9 14-8 10-11 12-12 11-16 11-18 10-20 8-20 5-13 2h-42l-20-4-21-7-16-8-11-6-14-10-14-12-11-12-11-15-6-9-9-19-7-21-4-16-2-23v-12l2-22 7-26 7-16 8-16 8-12 8-10 11-12 11-10 12-9 15-9 17-8 18-6 17-4zm10 54-13 2-17 5-16 8-11 7-14 12-9 10-10 16-6 13-6 20-1 5v32l5 19 6 15 7 12 10 13 7 8 13 10 11 7 19 8 11 3 20 2 19-1 15-3 14-5 17-9 12-9 16-16 11-17 7-17 4-15 2-17-1-18-3-17-6-16-8-15-9-12-7-8-14-11-13-8-13-6-17-5-15-2z" fill="#030303"/>
<path transform="translate(114,104)" d="m0 0 2 1-7 7-7 8v-3l11-12z" fill="#FEFEFE"/>
</svg>
