<?xml version="1.0" encoding="UTF-8"?>
<svg version="1.1" viewBox="0 0 900 900" width="1280" height="1280" xmlns="http://www.w3.org/2000/svg">
<path transform="translate(449)" d="m0 0h2l7 11 14 19 10 14 39 54 14 19 2 3 6-1 31-14 36-16 42-19 20-9h3l3 27 12 119v3l36 3 97 10 16 2-3 9-12 26-9 20-17 38-13 29-5 12v4l19 14 17 12 19 14 18 13 17 12 19 14 10 7v2l-13 9-19 14-17 12-19 14-36 26-13 9-3 3 11 26 18 40 19 42 12 27v2l-137 14-12 2-4 43-9 87-1 17-3 1-35-16-18-8-58-26-23-10h-2l-4 6-20 28-14 19-20 28-13 18-12 17-3 4-3-1-13-19-12-16-13-18-10-14-14-19-12-17-11-15-7 1-40 18-83 37-6 3h-2l-1-2-7-72-7-69v-6l-43-4-106-11 1-5 8-18 7-15 27-60 15-34 1-6-18-13-15-11-54-39-19-14-14-10 3-3 16-11 19-14 72-52 10-7-1-6-8-18-26-58-17-38-7-15v-3l35-4 77-8 36-3 5-45 7-70 3-31 1-3 7 2 15 7 54 24 40 18 18 8 3 1 13-18 14-19 12-17 12-16 13-18 12-17 10-14zm-212 393-8 4-4 6-1 112 1 10 4 6 8 4h7l7-4 4-5 1-10 1-67 8 10 10 13 10 12 11 14 10 13 13 16 6 5 6 3h6l8-5 3-4 1-113-1-10-4-6-4-3-3-1h-7l-8 4-3 4-1 3-1 33v43l-6-7-11-14-8-10-10-13-11-14-14-18-6-7-8-4zm267 0-8 5-3 4v10l14 58 11 45 4 11 4 5 10 4h7l10-4 6-7 12-36 10-32 2-7 2-1 2 10 21 65 4 6 9 5 4 1h7l10-5 4-5 4-11 10-41 14-58 1-11-3-5-6-5-3-1h-7l-6 3-5 6-4 16-12 56-2 14h-2l-2-10-18-58-6-18-5-6-7-3h-7l-6 3-5 6-12 36-12 39-2 7v4h-2l-5-26-12-56-4-8-5-4-3-1zm-103 1-8 2-6 7-1 2v118l4 6 4 3 8 2h52l8-2 5-5 1-2v-11l-5-6-5-2-41-1v-27l36-1 7-3 4-5 1-9-3-6-6-4-4-1-35-1v-25l40-1 6-4 4-6v-8l-5-7-8-3z" fill="#3DB39D"/>
</svg>
