<?xml version="1.0" encoding="UTF-8"?>
<svg version="1.1" viewBox="0 0 2000 2000" width="1280" height="1280" xmlns="http://www.w3.org/2000/svg">
<path transform="translate(966,532)" d="m0 0h36l38 4 26 5 26 7 22 8 21 9 24 12 20 12 16 11 18 14 13 12 8 7 8 8v2h2l7 8 12 14 13 18 12 18 9 15 13 25 9 21 7 20 6 20 6 31 3 25 3 35 3 7 11 15 12 19 13 25 9 23 6 21 5 27 2 25v23l-2 29-6 36-14 61-4 21-3 19-1 10v34l4 9 4 6 9 10 9 9 11 9 13 12 8 7 13 12 16 16 11 14 9 14 12 25 3 2 5 1h19l7-5 3-6v-287l-37-37-11-14-8-16-4-13-2-16 1-16 4-17 8-16 6-9 9-10 8-7 13-8 13-7 1-19 4-20 6-15 6-11 12-14 13-11 10-6 15-6 23-4h69l20 3 15 5 14 8 10 8 10 10 7 10 8 16 5 19 1 12v516l-1 20-5 30-5 18-7 20-8 16-10 18-11 15-9 11-15 16-8 7-15 12-19 12-21 11-21 8-21 6-24 4-15 1h-15l-20-1-73-9-79-10-4-1v312l-77 1h-670l-2-7v-305l-15 1-84 11-58 7-17 1h-19l-21-2-24-5-24-8-20-9-19-11-14-10-13-11-23-23-11-14-7-10-9-15-8-16-7-19-5-17-4-20-3-27v-530l5-22 4-10 8-13 8-10 9-9 15-10 17-7 16-3 10-1h63l21 3 16 5 15 8 13 11 9 10 8 13 5 11 4 15 2 14 1 16 17 9 12 9 10 9 10 14 6 12 4 13 2 10 1 14-2 16-6 18-6 11-11 14-37 37-1 31v239l1 18 4 6 6 4h13l41-6 48-7 7-1-4-8-10-13-10-15-8-14-9-19-6-17-5-19-4-28v-19l5-36 5-20 7-19 8-17 10-16 14-18 10-11 11-9 14-10 6-4h2l1-4 1-232 3-32 6-31 6-23 9-26 11-25 13-24 10-16 12-17 14-18 12-13 29-29 11-9 17-13 22-14 22-12 19-9 29-11 28-8 23-5 32-4z" fill="#010001"/>
<path transform="translate(1542,32)" d="m0 0h167l4 9 20 61 3 5 6-2 52-26 11-5 5 1 11 11 8 7 16 17 36 36 6 5 5 5 4 5 7 6 6 7 6 5 7 8 3 3 1 4-16 33-17 34v3l16 6 50 17 8 3 1 2v166l-9 4-67 23 2 5 12 25 19 38 1 5-7 8-110 110-6-1-30-15-19-10-19-9-3 9-19 59-4 8-1 1h-166l-3-5-7-19-15-46-2-6-6 2-64 32-5-1-56-56v-2l-4-2v-2l-4-2-52-52 1-7 12-24 10-19 10-21v-3l-19-7-54-18-2-2v-167l8-4 52-17 14-5 1-3-12-25-17-33-4-9 1-6 34-34h2l1-3 7-6 36-36 6-7h2l2-4 21-21h2l1-3 6-1 29 14 38 19h3l10-29 12-36 4-9zm81 247-18 2-18 6-13 7-14 11-8 8-10 15-7 15-4 16-1 20 2 17 6 18 8 14 7 9 5 6h2v2l15 11 16 8 19 5h29l19-5 17-8 12-9 6-5 9-11 8-13 5-11 4-15 1-7v-22l-3-15-6-15-8-13-8-10-8-8-13-9-14-7-16-5-18-2z" fill="#FBD574"/>
<path transform="translate(295,32)" d="m0 0h33l26 3 25 5 24 7 25 10 16 8 18 10 16 11 14 11 13 12 19 19 11 14 9 12 9 14 10 18 9 19 8 22 7 27 4 26 2 30-1 25-3 24-5 25-8 26-9 21-12 23-16 24-13 16-7 8-5 6-8 7-8 8-17 13-18 13-8 7h-2l-2 4-7 10-5 12-2 15-1 71-2 14-5 17-7 16-9 14-9 11-10 10-16 11-15 8-21 7-14 3-10 1h-14l-19-3-16-5-14-6-14-9-10-8-9-8-9-11-7-10-8-16-4-11-4-16-2-15-1-72-4-15-7-13-8-9-17-12-16-12-14-12-21-21-9-11-12-17-8-13-12-23-9-21-7-21-5-21-3-18-3-24v-30l5-37 6-25 6-18 8-19 8-16 8-15 13-19 12-16 11-12 9-10 10-9 15-12 17-12 15-9 19-10 19-8 24-8 21-5 25-4z" fill="#020102"/>
<path transform="translate(960,594)" d="m0 0h48l26 3 27 6 16 5 20 7 18 8 21 12 14 9 11 8 13 10 10 9 8 7 9 9 7 8 11 13 12 17 11 18 6 10 9 20 5 11 9 27 6 28 3 25 1 17 1 38 7 8 11 12 11 16 9 15 10 21 8 24 5 27 1 12v23l-2 25-5 30-9 38-8 36-4 24-2 22-1 18v17l3 18 6 15 8 14 10 13 13 14 8 7 10 9 11 9 12 11 10 8 9 10v3l-13-1-18-3-23-3-2-1-16-2-48-7-26-4-103-16-8-2v-59l5-5 12-11 3-3h2l2-4 8-8 11-14 12-17 11-19 10-22 10-31 5-25 2-19 1-267h-174l-23-1-31-4-28-6-26-8-20-8-16-7-22-12-24-15-10-7-10 5-17 12-44 29-16 11-15 10-23 15v253l3 24 5 24 9 27 9 20 11 20 12 17 8 10 9 10 5 6 8 7 11 10 19 14 15 10-2 13-4 16-6 12-6 8-13 15-6 6 2 4 36 36 9 11 7 10 8 16 4 15 2 12v30l-3 21-6 22-9 21-9 17-12 17-9 11-12 13-10 10-11 9-20 15-9 5h-2l-8-13-10-13-12-14-22-22-8-7-12-11-8-7-13-12-10-9v-2l-3-1-7-8-10-12-6-10-5-10-3-11-1-7v-14l3-21 4-15 5 2 33 21 19 11 24 13 33 16 21 9 4 1 3-11 13-34 5-14-10-3-25-11-26-13-23-13-21-13-19-13-16-12-10-8-11-10-8-7-16-16v-2h-2l-10-13-10-14-9-16-8-21-4-16-1-7v-26l3-24 6-20 8-18 13-19 9-10 11-9 11-8 13-6 18-6 1-1v-226l1-48 2-22 5-27 8-29 10-24 8-17 11-19 8-12 9-12 10-13 12-13 17-17 11-9 19-14 21-13 19-10 29-12 28-8 27-5z" fill="#646C77"/>
<path transform="translate(1595,1155)" d="m0 0 124 1v309l-2 15-4 17-8 21-9 17-9 13-8 10-11 12-11 9-12 9-13 8-21 9-21 6-19 3h-33l-73-9-31-4-55-6-66-1v257l-1 54-1 1h-190l-4-27-13-103-11-86-2-16-1-7 5 3 46 46 2 1 4-20 22-98 28-125 5-22 2-3 131 20 109 17 53 8 9 1h19l16-4 10-4 12-8 10-9 9-12 6-13 4-16 1-271z" fill="#B6DB81"/>
<path transform="translate(1542,32)" d="m0 0h167l4 9 20 61 3 5 6-2 52-26 11-5 5 1 11 11 8 7 16 17 36 36 6 5 5 5 4 5 7 6 6 7 6 5 7 8 3 3 1 4-16 33-17 34v3l16 6 50 17 8 3 1 2v166l-9 4-67 23 2 5 12 25 19 38 1 5-7 8-110 110-6-1-30-15-19-10-19-9-3 9-19 59-4 8-1 1h-166l-3-5-7-19-15-46-2-6-6 2-64 32-5-1-56-56v-2l-4-2v-2l-4-2-52-52 1-7 12-24 10-19 10-21v-3l-19-7-54-18-2-2v-167l8-4 52-17 14-5 1-3-12-25-17-33-4-9 1-6 34-34h2l1-3 7-6 36-36 6-7h2l2-4 21-21h2l1-3 6-1 29 14 38 19h3l10-29 12-36 4-9zm43 61-6 16-14 43-5 13-10 4-19 8-7 3-6-1-19-10-42-21h-5l-7 8-47 47 1 6 9 17 11 23 8 16 3 7-8 20-7 18-47 16-23 8-1 1-1 32v46l1 3 31 10 39 13 16 38-1 4-19 39-10 19-2 5 1 4 8 7 31 31 5 6 7 6 3 4 5-1 62-31 9 2 16 7 14 5 4 8 18 55 4 9 23 1 56-1 3-5 14-41 9-26 18-6 19-8 5 1 60 30 4 1 46-46 8-7 2-2-1-5-31-62 1-7 10-23 4-11 49-16 21-7 2-4v-76l-4-3-41-14-27-9-15-36 1-7 8-16 12-23 11-21-1-5-13-12-42-42-5 1-54 27-7 4-6-1-21-9-13-5-4-11-12-36-8-23-2-2z" fill="#020102"/>
<path transform="translate(987,32)" d="m0 0h26l24 3 26 6 19 7 25 12 19 12 16 13 8 7 14 14 11 14 10 14 11 20 7 16 8 24 5 25 2 18v28l-4 29-5 19-8 22-8 17-12 20-10 13-12 14-10 10-11 9-15 11-18 11-15 8-20 8-26 7-30 4h-28l-32-4-22-6-20-8-16-8-14-8-19-14-11-10-8-7-12-13-10-13-11-17-8-15-8-19-7-23-4-19-2-17v-34l4-27 6-22 8-20 9-19 13-20 10-13 9-10 4-5 8-7 14-12 18-12 19-11 16-7 21-7 22-5 12-2z" fill="#FB8270"/>
<path transform="translate(874,881)" d="m0 0 4 1 27 14 15 7 25 10 18 6 27 7 27 5 44 5 125 1 2 1v197l-2 19-6 25-6 17-10 21-12 18-8 10-9 10-13 13-4 2-5 5-15 10-19 10-14 6-19 6-20 4-8 1h-37l-23-4-21-6-21-9-16-9-14-10-11-9-19-19-12-16-10-17-10-21-6-19-4-19-2-19-1-39v-55l1-118 9-7 16-10z" fill="#EECFB3"/>
<path transform="translate(295,93)" d="m0 0h36l21 3 7 2 14 3 7 2 12 5 11 4v2l6 1 17 10 11 7 6 4v2l5 2v2l5 2 8 8 7 6 4 5 5 5 6 7v2h2l1 4 3 1v3h2l3 5v2h2v3h2l1 5h2l3 6 8 15 4 11 4 9 3 9 3 15 4 22 1 1 1 14v17l-1 7-1 18-3 13-5 19-7 20-8 17-10 17-13 18-12 14-14 14-14 11-18 13-10 8-5 5h-2l-2 4-7 8-10 16-5 11-4 11-5 30-32 1v-195l15-6h2v-2h3v-2l6-3 14-14 5-6 1-3h2l1-4 7-14 2-6 2-11 1-2v-21l-2-16-3-9v-3h-2l-6-14-3-3v-3l-3-1-1-3-5-5-8-7v-2l-5-2-5-3v-2l-5-1-4-2v-2l-5-1-19-5-7-1h-24l-19 5-16 8-13 10-11 11-11 18-5 14-3 12v24l3 17 3 8 7 14 5 7v2l4 2 6 8 6 4 5 5 14 8 8 3 1 163-1 30-31 1-2-6-5-24-6-16-4-8v-4h-2l-5-8v-3l-3-1-2-4-10-10-9-7v-2l-4-1v-2l-4-1-3-2v-2l-5-2-5-3v-2l-4-2-6-4-5-5-7-6-13-13-1-3-4-4v-2l-3-1-10-14-3-5v-3h-2l-9-16-5-11-2-9-5-15-5-23-3-25v-26l3-25 6-26 5-17h2l2-9h2l2-8 1-2h2l2-7 7-12 5-7h2v-3h2l1-4 4-4 1-2h2l2-5 16-16 8-7 7-5 3-3h2v-2l4-1v-2h3v-2l5-3 3-2h3v-2l19-10 11-4 8-4 20-6 13-2 13-3z" fill="#FEE9A8"/>
<path transform="translate(283,1155)" d="m0 0h29l94 1 1 151v105l1 17 4 16 8 16 8 10 7 7 11 7 15 7 15 3h20l92-14 12-1v3l-3 17-2 14v30l5 25 6 16 4 8v3l-139 17-12 1h-30l-24-4-24-8-16-8-16-10-11-9-10-9-7-7-10-13-9-14-8-16-6-16-4-15-3-22v-307z" fill="#B5DB81"/>
<path transform="translate(987,32)" d="m0 0h26l24 3 26 6 19 7 25 12 19 12 16 13 8 7 14 14 11 14 10 14 11 20 7 16 8 24 5 25 2 18v28l-4 29-5 19-8 22-8 17-12 20-10 13-12 14-10 10-11 9-15 11-18 11-15 8-20 8-26 7-30 4h-28l-32-4-22-6-20-8-16-8-14-8-19-14-11-10-8-7-12-13-10-13-11-17-8-15-8-19-7-23-4-19-2-17v-34l4-27 6-22 8-20 9-19 13-20 10-13 9-10 4-5 8-7 14-12 18-12 19-11 16-7 21-7 22-5 12-2zm0 61-20 3-15 4-19 7-16 9-11 8-10 8-13 13-11 14-8 13-8 16-6 16-5 21-1 8v34l5 25 7 20 8 16 7 11 11 14 14 15 13 10 14 9 17 8 19 7 20 4 13 1h17l22-3 21-6 21-9 15-9 13-10 19-19 10-14 9-15 8-19 6-20 3-18v-30l-3-18-6-21-8-18-9-15-13-17-17-17-14-10-17-10-19-8-19-5-10-2-10-1z" fill="#020102"/>
<path transform="translate(1614,219)" d="m0 0h21l26 4 23 7 16 8 12 7 12 9 13 12 9 10 11 16 8 14 8 20 5 19 3 22v14l-2 18-4 18-7 21-10 19-8 11-8 10-8 9h-2v2l-11 9-13 9-14 8-16 7-17 5-25 4h-22l-26-4-24-8-21-11-14-10-13-11-13-14-13-19-8-15-7-19-4-16-2-15v-28l3-20 8-26 12-23 11-15 9-10 10-10 13-10 13-8 16-8 24-8 17-3zm9 60-18 2-18 6-13 7-14 11-8 8-10 15-7 15-4 16-1 20 2 17 6 18 8 14 7 9 5 6h2v2l15 11 16 8 19 5h29l19-5 17-8 12-9 6-5 9-11 8-13 5-11 4-15 1-7v-22l-3-15-6-15-8-13-8-10-8-8-13-9-14-7-16-5-18-2z" fill="#010001"/>
<path transform="translate(688,1680)" d="m0 0 4 2 8 8 8 7 15 15 9 11 9 13 8 16 5 12 8 26 1 2 4-1 40-20 19-11 3-2h3v-2l13-8h2v-2l9-6h2v-2l6-4h2l1-3 6-4 12-12h2l2-4 4-1-2 28-10 129-3 37-2 2h-187l-2-2v-214z" fill="#B5DB81"/>
<path transform="translate(967,1562)" d="m0 0h20l31 31 2 5 5 42 11 86 6 47 12 95 5 34-1 4-57 1h-60l-1-1v-11l5-65 7-90 6-83 5-60 2-33z" fill="#FB8270"/>
<path transform="translate(1616,906)" d="m0 0h79l12 6 7 8 5 10v163l-2 1h-142l-37-37-6-10-1-3v-12l4-10 7-8 10-6 40-20 1-55 3-10 7-9 11-7z" fill="#ECCEB2"/>
<path transform="translate(304,906)" d="m0 0h78l9 4 8 6 6 10 2 7v53l3 3 36 18 10 6 7 6 5 10 1 4v10l-4 10-9 10-31 31h-143l-1-1-1-152 1-11 6-12 7-7z" fill="#ECCEB3"/>
<path transform="translate(1072,166)" d="m0 0 42 42-1 4-143 143-4-1-13-12-16-16-7-8-45-45 2-4 40-40 5 2 36 36 4-2 98-98z" fill="#010001"/>
<path transform="translate(1090,1357)" d="m0 0h4v36l-4 5-8 7-12 13-46 46-6 5-7 8-7 7-8 7-9 9-22-1-4-18-5-16-7-16-8-14-8-11-9-11-4-5 2-6 7-20 4-16 7 1 11 3 36 4h25l21-2 25-5 25-7z" fill="#EDCFB3"/>
<path transform="translate(250,656)" d="m0 0h126l-1 13-4 12-8 13-9 10-10 7-10 5-10 3h-23l-13-4-11-6-12-11-7-9-6-13-2-8z" fill="#ECCEB3"/>
<path transform="translate(1138,1438)" d="m0 0 2 1v7l-20 89-9 40-3 15-1 2-4-1-7-8-51-51 2-4 51-51 7-8 27-27z" fill="#B5DA81"/>
<path transform="translate(310,280)" d="m0 0 13 2 10 6 6 7 4 8 1 5v10l-4 10-2 3h-2l-2 4-8 6-5 2h-18l-8-4-7-6-5-8-2-6v-14l6-12 7-7 10-5z" fill="#F9D476"/>
<path transform="translate(250,656)" d="m0 0h126l-1 4-2-1v-2h-122l5 23 4 8-1 2-7-14-2-8z" fill="#646C77"/>
<path transform="translate(1076,1408)" d="m0 0h2l-2 4-52 52-2-2z" fill="#C6B79C"/>
<path transform="translate(340,711)" d="m0 0 2 1-8 4-10 3h-23l-10-3 1-2 4 1 14 1 6 1 12-3 9-2z" fill="#646C77"/>
<path transform="translate(97,345)" d="m0 0 2 2 4 19 4 15 2 6-1 4-6-18-5-23z" fill="#EFD0B4"/>
<path transform="translate(987,1564)" d="m0 0 4 2 20 20-1 3-23-23z" fill="#C8B09F"/>
<path transform="translate(239,550)" d="m0 0 4 4 4 12 1 5v11h-1l-4-18-4-11z" fill="#B38F74"/>
<path transform="translate(1090,1357)" d="m0 0h3v7l-2 4-1-3-3-1v-3h-2v-2z" fill="#F4E0A7"/>
<path transform="translate(874,881)" d="m0 0 4 1 1 2-5 3-7 2-4 2-1-2z" fill="#E5D2A4"/>
<path transform="translate(1571,862)" d="m0 0m-1 1m-2 1 2 1-18 18v-3l11-12z" fill="#585656"/>
<path transform="translate(374,661)" d="m0 0h1v8l-4 12-2 1 3-16z" fill="#646C77"/>
<path transform="translate(966,1494)" d="m0 0 5 3h17l-1 3-21-1z" fill="#F5E3B6"/>
<path transform="translate(1015,1469)" d="m0 0h2l-2 4-11 11-2-2z" fill="#C6B79C"/>
<path transform="translate(938,328)" d="m0 0 4 2 11 11-1 2-7-6-5-6-2-1z" fill="#F4B299"/>
<path transform="translate(245,563)" d="m0 0 2 3 1 5v11h-1l-2-10z" fill="#B89374"/>
<path transform="translate(889,1713)" d="m0 0h2v2h-2v3l-9 3 5-6z" fill="#F7E3B1"/>
<path transform="translate(1310,1893)" d="m0 0h1l1 12h-8l4-2z" fill="#FEE9A9"/>
</svg>
