<?xml version="1.0" encoding="UTF-8"?>
<svg version="1.1" viewBox="0 0 1440 1440" width="1280" height="1280" xmlns="http://www.w3.org/2000/svg">
<path transform="translate(709,323)" d="m0 0h23l17 3 18 6 19 10 12 9 11 10 9 11 10 15 9 19 6 20 4 23 1 16v17l-1 16-3 9-13 22-9 17-7 21-2 9v6l21 10 13-13h2l1-3 13-10 13-8 14-7 17-5 17-2h10l17 2 18 5 11 5 15 8 10 6 9-1 28-7 21-2 17 2 10 3 2-31 1-15v-11l-6-21-6-16-6 1-15 5-9 2h-22l-30-6-16-5-12-6-9-9-5-11-1-4v-10l3-12 6-15 11-19 9-10 7-6 14-8 14-5 13-2h23l20 3 16 5 16 7 10 6 13 11 8 9 9 14 7 16 4 11 6 8 14 17 14 19 12 17 13 21 9 17 10 25 10 31 6 25 5 27 2 19v18l-8 11-12 12-11 9-14 11-17 11-22 12-18 8-19 7-20 6-31 6-22 2h-19l-22-2-23-5-9-3-1 8-8 21-13 25-12 16-12 14-10 10-5 4-7 14-7 23-12 49-10 47-9 50-7 46-2 20-4 7-5 4-6 1h-287l-6-3-6-7-9-64-7-39-10-50-13-55-8-27-6-14-10-10-7-6-7-8-11-14-11-18-8-16-8-22-1-6-17 5-24 4-13 1h-20l-23-2-25-5-21-6-17-6-18-8-16-8-16-9-14-10-14-11-14-12-9-9-5-7-1-4v-17l3-25 6-29 9-31 7-20 8-20 10-19 12-19 11-16 16-21 20-25 7-20 8-15 10-13 9-9 15-10 16-7 21-6 14-2h24l20 4 11 5 11 6 10 9 7 8 11 19 7 19 1 6v12l-4 11-9 10-11 7-20 6-30 6h-22l-15-4-14-5-3 10-6 17-3 12 1 24 2 25v7l15-4 14-1 19 2 32 8 7-1 21-12 19-8 17-4 11-1h13l16 2 18 6 21 11 12 9 10 9 7 8 5 3 16-7 4-3-1-11-5-18-13-27-11-18-3-7-2-18v-13l1-19 3-20 5-18 6-15 10-19 10-13 10-11 11-9 14-9 15-7 17-5zm0 34-14 3-16 7-9 6-10 9-5 5-8 10-9 17-6 18-4 21-1 13v19l2 9 9 15 8 16 7 16 7 23 2 12v17l-4 8-1 3-4 2-15 9-16 7-15 4h-15l-8-7-9-11-7-7-15-11-15-7-17-4h-18l-18 4-16 7-19 11-10 3h-10l-20-4-16-4-7-1h-13l-9 2-13 7-9 7-10 1-7-3-5-6-2-12-5-65v-22l6-21 8-20 9-17 9-11 7-4h7l7 3 15 8 16 4 11-1 29-6 11-4 2-2-1-9-7-14-8-12-7-6-11-5-14-3h-14l-17 3-16 5-14 7-10 9-6 8-7 14-5 17-4 6-11 13-9 12-10 13-8 11-10 15-12 20-9 19-9 25-7 24-6 26-4 28 1 7 6 7 22 18 19 12 14 8 24 11 21 7 25 6 25 3h27l21-3 21-6 17-7h7l8 4 4 9 4 21 7 21 10 20 10 14 11 12 8 8 8 7 8 14 6 15 9 30 8 32 12 55 9 49 8 52 1 2h249l2-9 8-51 11-57 11-49 8-31 10-30 7-16 7-9 13-12 8-8 13-18 9-17 6-16 5-20 3-15 5-5 4-2h9l19 8 19 5 12 2 11 1h26l18-2 23-5 33-11 25-12 18-11 16-12 16-13 5-5 1-10-4-26-6-26-7-24-7-20-8-18-9-17-16-24-14-19-11-14-9-11-8-10-5-18-8-16-9-10-9-7-14-6-18-5-13-2h-13l-14 3-9 4-8 6-7 10-8 15-2 10 5 4 13 4 25 5 10 1 16-4 13-7 7-4h9l6 3 3 1 2 4 7 10 9 17 7 19 5 18v19l-3 44-2 29-2 9-5 6-9 2-8-1-13-10-13-5-5-1h-14l-18 4-23 5h-12l-11-4-15-9-15-7-15-4-5-1h-18l-14 3-11 4-11 6-13 11-11 11-8 10-4 2h-15l-12-3-13-5-19-10-7-6-3-6-1-6v-11l3-18 5-17 8-18 8-16 9-16 2-8v-21l-1-14-4-19-7-21-8-14-8-10-9-10-14-10-17-7-13-3z" fill="#020202"/>
</svg>
