<?xml version="1.0" encoding="UTF-8"?>
<svg version="1.1" viewBox="0 0 896 900" width="1280" height="1280" xmlns="http://www.w3.org/2000/svg">
<path transform="translate(512,333)" d="m0 0h15l20 4 13 5 13 7 13 10 8 8 10 15 6 14 3 11 2 14v16l-3 19-5 15-6 11-9 12-8 8-15 10-16 7-15 4-8 1h-24l-16-3-14-5-15-8-14-12-11-14-6-12-6-19-2-17 1-18 2-12 5-15 7-13 8-11 10-10 15-10 16-7 18-4zm-34 35v121l6-2 52-30 22-13 23-13 2-1-1-3-28-16-72-42z" fill="#FB0F1B"/>
<path transform="translate(417,532)" d="m0 0h11l9 6 363 1 5 3 3 7-1 7-6 7-9 1h-202l-161 1-2 2h-9l-1-3h-300l-7-3-3-4-1-8 4-8 3-2 295-1z" fill="#FB0E1A"/>
<path transform="translate(730,335)" d="m0 0h16l19 3 13 5 10 6 9 7 6 8 1 3v7l-6 9-9 5-7-1-11-8-11-7-10-4-5-1h-13l-16 4-13 7-11 10-7 11-5 11-3 15v11l3 15 6 14 8 10 9 7 14 7 10 2h19l14-3 14-7 1-2v-31l-45-1-6-4-4-8 1-9 5-7 5-3h63l8 4 5 7 1 3v57l-3 9-7 8-11 7-16 7-16 4-8 1h-23l-17-3-15-5-13-7-10-8-8-9-8-13-5-11-4-17-1-10v-19l2-13 5-16 6-12 8-11 9-10 12-9 15-8 15-5z" fill="#040202"/>
<path transform="translate(104,338)" d="m0 0 9 1 7 6 11 23 11 26 15 34 17 40h2l13-31 29-67 10-22 7-8 3-1h11l6 3 5 6 1 3v8l-7 17-16 35-15 33-14 31-13 29-7 13-7 6-7 1-7-3-6-5-8-16-19-39-13-28-12-25-12-26-8-16-2-5v-10l4-7 5-4z" fill="#060404"/>
<path transform="translate(297,340)" d="m0 0h10l6 4 4 6 1 4v133l79 1 6 4 4 5 1 2v11l-7 9-6 2h-98l-7-4-3-4-1-5v-156l3-6 6-5z" fill="#0C0707"/>
<path transform="translate(417,532)" d="m0 0h11l9 6v2h2l1 10-3 13-1 1-7 1-2 2h-9l-1-3h-300l-7-3-3-4-1-8 4-8 3-2 295-1z" fill="#FB0E1A"/>
<path transform="translate(417,532)" d="m0 0h11l9 6v2h2l1 10-3 13-1 1-7 1-2 2h-9l-1-3h-9l-3-2 1-6-1-3v-8l3-7z" fill="#050203"/>
</svg>
